{
  "accessors": [
    {
      "bufferView": 2,
      "componentType": 5126,
      "count": 27332,
      "max": [0.49155551195144653, 0.482646107673645, 0.49195221066474915],
      "min": [-0.4593549966812134, -0.4864824414253235, -0.002036483958363533],
      "type": "VEC3"
    },
    {
      "bufferView": 2,
      "byteOffset": 327984,
      "componentType": 5126,
      "count": 27332,
      "max": [0.9999819993972778, 0.9999597072601318, 0.9999780654907227],
      "min": [-0.9999823570251465, -0.9997885227203369, -0.9996596574783325],
      "type": "VEC3"
    },
    {
      "bufferView": 1,
      "componentType": 5126,
      "count": 27332,
      "max": [0.9881138205528259, 0.961754560470581],
      "min": [0.04330706596374512, 0.13728377223014832],
      "type": "VEC2"
    },
    {
      "bufferView": 0,
      "componentType": 5125,
      "count": 110316,
      "type": "SCALAR"
    }
  ],
  "asset": {
    "extras": {
      "author": "Irina.Tuchna (https://sketchfab.com/Irina.Tuchna)",
      "license": "CC-BY-4.0 (http://creativecommons.org/licenses/by/4.0/)",
      "source": "https://sketchfab.com/3d-models/wildflower-bouquet-6a1c3ed6920a4c1a81d1a995f62fc11b",
      "title": "Wildflower bouquet"
    },
    "generator": "Sketchfab-12.66.0",
    "version": "2.0"
  },
  "bufferViews": [
    {
      "buffer": 0,
      "byteLength": 441264,
      "name": "floatBufferViews",
      "target": 34963
    },
    {
      "buffer": 0,
      "byteLength": 218656,
      "byteOffset": 441264,
      "byteStride": 8,
      "name": "floatBufferViews",
      "target": 34962
    },
    {
      "buffer": 0,
      "byteLength": 655968,
      "byteOffset": 659920,
      "byteStride": 12,
      "name": "floatBufferViews",
      "target": 34962
    }
  ],
  "buffers": [
    {
      "byteLength": 1315888,
      "uri": "scene.bin"
    }
  ],
  "images": [
    {
      "uri": "textures/Material.002_baseColor.png"
    }
  ],
  "materials": [
    {
      "doubleSided": true,
      "name": "Material.002",
      "pbrMetallicRoughness": {
        "baseColorTexture": {
          "index": 0
        },
        "metallicFactor": 0.0,
        "roughnessFactor": 0.0
      }
    }
  ],
  "meshes": [
    {
      "name": "flowers.001_Material.002_0",
      "primitives": [
        {
          "attributes": {
            "NORMAL": 1,
            "POSITION": 0,
            "TEXCOORD_0": 2
          },
          "indices": 3,
          "material": 0,
          "mode": 4
        }
      ]
    }
  ],
  "nodes": [
    {
      "children": [1],
      "matrix": [
        1.0, 0.0, 0.0, 0.0, 0.0, 2.220446049250313e-16, -1.0, 0.0, 0.0, 1.0,
        2.220446049250313e-16, 0.0, 0.0, 0.0, 0.0, 1.0
      ],
      "name": "Sketchfab_model"
    },
    {
      "children": [2],
      "matrix": [
        1.0, 0.0, 0.0, 0.0, 0.0, 0.0, 1.0, 0.0, 0.0, -1.0, 0.0, 0.0, 0.0, 0.0,
        0.0, 1.0
      ],
      "name": "ae5e5a7353d34cfa94cb3b0f23257c9d.fbx"
    },
    {
      "children": [3],
      "name": "RootNode"
    },
    {
      "children": [4],
      "matrix": [
        100.0, 0.0, 0.0, 0.0, 0.0, -1.629206793918314e-5, -99.99999999999868,
        0.0, 0.0, 99.99999999999868, -1.629206793918314e-5, 0.0, 0.0, 0.0, 0.0,
        1.0
      ],
      "name": "flowers.001"
    },
    {
      "mesh": 0,
      "name": "flowers.001_Material.002_0"
    }
  ],
  "samplers": [
    {
      "magFilter": 9729,
      "minFilter": 9987,
      "wrapS": 10497,
      "wrapT": 10497
    }
  ],
  "scene": 0,
  "scenes": [
    {
      "name": "Sketchfab_Scene",
      "nodes": [0]
    }
  ],
  "textures": [
    {
      "sampler": 0,
      "source": 0
    }
  ]
}
